{"title":"This.is.40.2012.BRRip XViD juggs","uid":8232363,"size":752160709,"categoryP":"video","categoryS":"movies","magnet":"?xt=urn:btih:2c6cff13594dba5d5da5692ae25d2b111f0f624d&amp;dn=This.is.40.2012.BRRip+XViD+juggs&amp;tr=udp%3A%2F%2Ftracker.openbittorrent.com%3A80&amp;tr=udp%3A%2F%2Fopen.demonii.com%3A1337&amp;tr=udp%3A%2F%2Ftracker.coppersurfer.tk%3A6969&amp;tr=udp%3A%2F%2Fexodus.desync.com%3A6969","seeders":4,"leechers":1,"uploader":"juggs99","files":3,"time":1362756039,"description":"Source : Alliance\n\n\nFormat : AVI\nFormat/Info : Audio Video Interleave\nFile size : 708 MiB\nDuration : 2h 17mn\nOverall bit rate : 722 Kbps\nWriting library : VirtualDub build 32842/release\n\nVideo\nID : 0\nFormat : MPEG-4 Visual\nFormat profile : Advanced Simple@L5\nFormat settings, BVOP : 4\nFormat settings, QPel : No\nFormat settings, GMC : No warppoints\nFormat settings, Matrix : Default (H.263)\nMuxing mode : Packed bitstream\nCodec ID : XVID\nCodec ID/Hint : XviD\nDuration : 2h 17mn\nBit rate : 601 Kbps\nWidth : 640 pixels\nHeight : 272 pixels\nDisplay aspect ratio : 2.35:1\nFrame rate : 23.976 fps\nColor space : YUV\nChroma subsampling : 4:2:0\nBit depth : 8 bits\nScan type : Progressive\nCompression mode : Lossy\nBits/(Pixel*Frame) : 0.144\nStream size : 589 MiB (83%)\nWriting library : XviD 64\n\nAudio\nID : 1\nFormat : MPEG Audio\nFormat version : Version 1\nFormat profile : Layer 3\nMode : Joint stereo\nMode extension : MS Stereo\nCodec ID : 55\nCodec ID/Hint : MP3\nDuration : 2h 17mn\nBit rate mode : Constant\nBit rate : 112 Kbps\nChannel(s) : 2 channels\nSampling rate : 44.1 KHz\nCompression mode : Lossy\nStream size : 110 MiB (16%)\nAlignment : Split accross interleaves\nInterleave, duration : 42 ms (1.00 video frame)\nInterleave, preload duration : 500 ms\nWriting library : LAME3.98\n\n\nPlot\nA look at the lives of Pete and Debbie a few years after the events of Knocked Up.\n\n &lt;a href=&quot;\nhttp://www.shotpix.com/images/15924836709489190543.png&quot; rel=&quot;nofollow&quot; target=&quot;_NEW&quot;&gt;\nhttp://www.shotpix.com/images/15924836709489190543.png&lt;/a&gt; &lt;a href=&quot;\nhttp://www.shotpix.com/images/52989542416160297580.png&quot; rel=&quot;nofollow&quot; target=&quot;_NEW&quot;&gt;\nhttp://www.shotpix.com/images/52989542416160297580.png&lt;/a&gt; &lt;a href=&quot;\nhttp://www.shotpix.com/images/74726318734137204139.png&quot; rel=&quot;nofollow&quot; target=&quot;_NEW&quot;&gt;\nhttp://www.shotpix.com/images/74726318734137204139.png&lt;/a&gt; &lt;a href=&quot;\nhttp://www.shotpix.com/images/90246304504446935714.png&quot; rel=&quot;nofollow&quot; target=&quot;_NEW&quot;&gt;\nhttp://www.shotpix.com/images/90246304504446935714.png&lt;/a&gt;","torrent":{"xt":"urn:btih:2c6cff13594dba5d5da5692ae25d2b111f0f624d","amp;dn":"This.is.40.2012.BRRip+XViD+juggs","amp;tr":["udp%3A%2F%2Ftracker.openbittorrent.com%3A80","udp%3A%2F%2Fopen.demonii.com%3A1337","udp%3A%2F%2Ftracker.coppersurfer.tk%3A6969","udp%3A%2F%2Fexodus.desync.com%3A6969"],"infoHash":"2c6cff13594dba5d5da5692ae25d2b111f0f624d","infoHashBuffer":{"type":"Buffer","data":[44,108,255,19,89,77,186,93,93,165,105,42,226,93,43,17,31,15,98,77]},"announce":[],"urlList":[]}}